<svg width="720" height="720" viewBox="0 0 720 720" fill="none" xmlns="http://www.w3.org/2000/svg">
<g opacity="0.4">
<g opacity="0.2">
<path d="M420 120C453.137 120 480 146.863 480 180C480 213.137 453.137 240 420 240C386.863 240 360 213.137 360 180C360 146.863 386.863 120 420 120Z" fill="url(#paint0_linear_4425_7096)"/>
</g>
<path d="M360 240C360 306.274 413.726 360 480 360L480 240L360 240Z" fill="url(#paint1_linear_4425_7096)"/>
<g opacity="0.6">
<path d="M240 60L300 60V0L360 60L300 60L300 120L240 60Z" fill="url(#paint2_linear_4425_7096)"/>
</g>
<path d="M180 -3.8147e-05C213.137 -3.8147e-05 240 26.8629 240 60C240 93.1371 213.137 120 180 120C146.863 120 120 93.1371 120 60C120 26.8629 146.863 -3.8147e-05 180 -3.8147e-05Z" fill="url(#paint3_linear_4425_7096)"/>
<path d="M480 -3.8147e-05C413.726 -3.8147e-05 360 53.7258 360 120L480 120L480 -3.8147e-05Z" fill="url(#paint4_linear_4425_7096)"/>
<g opacity="0.4">
<path d="M480 120L480 -3.8147e-05L600 -3.8147e-05V120L480 120Z" fill="url(#paint5_linear_4425_7096)"/>
</g>
<g opacity="0.3">
<path d="M120 0L0 0L120 120L120 0Z" fill="url(#paint6_linear_4425_7096)"/>
</g>
<path d="M600 240L600 120L480 240L600 240Z" fill="url(#paint7_linear_4425_7096)"/>
<path d="M660 360L660 300L600 300L660 240L660 300L720 300L660 360Z" fill="url(#paint8_linear_4425_7096)"/>
<g opacity="0.5">
<path d="M600 120C600 186.274 653.726 240 720 240L720 120L600 120Z" fill="url(#paint9_linear_4425_7096)"/>
</g>
<g opacity="0.5">
<path d="M720 600C720 533.726 666.274 480 600 480L600 600L720 600Z" fill="url(#paint10_linear_4425_7096)"/>
</g>
<path d="M720 360L600 360L720 480L720 360Z" fill="url(#paint11_linear_4425_7096)"/>
<path d="M660 600C626.863 600 600 626.863 600 660L660 660L660 600Z" fill="url(#paint12_linear_4425_7096)"/>
<path d="M660 660L660 720C693.137 720 720 693.137 720 660L660 660Z" fill="url(#paint13_linear_4425_7096)"/>
<g opacity="0.2">
<path d="M480 360L600 360L480 240L480 360Z" fill="url(#paint14_linear_4425_7096)"/>
</g>
</g>
<defs>
<linearGradient id="paint0_linear_4425_7096" x1="476.327" y1="131.02" x2="467.755" y2="232.041" gradientUnits="userSpaceOnUse">
<stop stop-color="#16A5A5"/>
<stop offset="1" stop-color="#3FC6C6"/>
</linearGradient>
<linearGradient id="paint1_linear_4425_7096" x1="371.02" y1="243.673" x2="472.041" y2="252.245" gradientUnits="userSpaceOnUse">
<stop stop-color="#16A5A5"/>
<stop offset="1" stop-color="#3FC6C6"/>
</linearGradient>
<linearGradient id="paint2_linear_4425_7096" x1="356.327" y1="108.98" x2="347.755" y2="7.9592" gradientUnits="userSpaceOnUse">
<stop stop-color="#16A5A5"/>
<stop offset="1" stop-color="#3FC6C6"/>
</linearGradient>
<linearGradient id="paint3_linear_4425_7096" x1="236.327" y1="11.0204" x2="227.755" y2="112.041" gradientUnits="userSpaceOnUse">
<stop stop-color="#16A5A5"/>
<stop offset="1" stop-color="#3FC6C6"/>
</linearGradient>
<linearGradient id="paint4_linear_4425_7096" x1="476.327" y1="11.0204" x2="467.755" y2="112.041" gradientUnits="userSpaceOnUse">
<stop stop-color="#16A5A5"/>
<stop offset="1" stop-color="#3FC6C6"/>
</linearGradient>
<linearGradient id="paint5_linear_4425_7096" x1="596.327" y1="11.0204" x2="587.755" y2="112.041" gradientUnits="userSpaceOnUse">
<stop stop-color="#16A5A5"/>
<stop offset="1" stop-color="#3FC6C6"/>
</linearGradient>
<linearGradient id="paint6_linear_4425_7096" x1="116.327" y1="108.98" x2="107.755" y2="7.9592" gradientUnits="userSpaceOnUse">
<stop stop-color="#16A5A5"/>
<stop offset="1" stop-color="#3FC6C6"/>
</linearGradient>
<linearGradient id="paint7_linear_4425_7096" x1="491.02" y1="236.326" x2="592.041" y2="227.755" gradientUnits="userSpaceOnUse">
<stop stop-color="#16A5A5"/>
<stop offset="1" stop-color="#3FC6C6"/>
</linearGradient>
<linearGradient id="paint8_linear_4425_7096" x1="708.98" y1="243.673" x2="607.959" y2="252.245" gradientUnits="userSpaceOnUse">
<stop stop-color="#16A5A5"/>
<stop offset="1" stop-color="#3FC6C6"/>
</linearGradient>
<linearGradient id="paint9_linear_4425_7096" x1="611.02" y1="123.674" x2="712.041" y2="132.245" gradientUnits="userSpaceOnUse">
<stop stop-color="#16A5A5"/>
<stop offset="1" stop-color="#3FC6C6"/>
</linearGradient>
<linearGradient id="paint10_linear_4425_7096" x1="708.98" y1="596.327" x2="607.959" y2="587.755" gradientUnits="userSpaceOnUse">
<stop stop-color="#16A5A5"/>
<stop offset="1" stop-color="#3FC6C6"/>
</linearGradient>
<linearGradient id="paint11_linear_4425_7096" x1="716.327" y1="468.98" x2="707.755" y2="367.959" gradientUnits="userSpaceOnUse">
<stop stop-color="#16A5A5"/>
<stop offset="1" stop-color="#3FC6C6"/>
</linearGradient>
<linearGradient id="paint12_linear_4425_7096" x1="716.327" y1="708.98" x2="707.755" y2="607.959" gradientUnits="userSpaceOnUse">
<stop stop-color="#16A5A5"/>
<stop offset="1" stop-color="#3FC6C6"/>
</linearGradient>
<linearGradient id="paint13_linear_4425_7096" x1="716.327" y1="708.98" x2="707.755" y2="607.959" gradientUnits="userSpaceOnUse">
<stop stop-color="#16A5A5"/>
<stop offset="1" stop-color="#3FC6C6"/>
</linearGradient>
<linearGradient id="paint14_linear_4425_7096" x1="483.674" y1="251.02" x2="492.245" y2="352.041" gradientUnits="userSpaceOnUse">
<stop stop-color="#16A5A5"/>
<stop offset="1" stop-color="#3FC6C6"/>
</linearGradient>
</defs>
</svg>
